<?xml version="1.0" encoding="UTF-8"?>
<svg height="16px" viewBox="0 0 16 16" width="16px" xmlns="http://www.w3.org/2000/svg">
    <g fill="#bebebe">
        <path d="m 8.121094 1.242188 c -3.589844 0 -6.5 2.910156 -6.5 6.5 c 0 3.589843 2.910156 6.5 6.5 6.5 c 0.554687 0 1.089844 -0.078126 1.605468 -0.207032 c -0.070312 -0.257812 -0.105468 -0.523437 -0.105468 -0.792968 c 0 -0.738282 0.273437 -1.449219 0.765625 -2 h -0.734375 v -3 h -3.03125 v 3 h -1.972656 v -7 h 1.972656 v 3 h 3.03125 v -3 h 0.597656 v -1 c 0 -0.558594 0.335938 -1.058594 0.855469 -1.269532 c -0.894531 -0.464844 -1.910157 -0.730468 -2.984375 -0.730468 z m 0 0"/>
        <path d="m 14.621094 13.242188 c 0 1.105468 -0.898438 2 -2 2 c -1.105469 0 -2 -0.894532 -2 -2 c 0 -1.105469 0.894531 -2 2 -2 c 1.101562 0 2 0.894531 2 2 z m 0 0"/>
        <path d="m 11.621094 10.242188 h 2 l 1 -7 h -3 z m 0 0"/>
    </g>
</svg>
