<?xml version="1.0" encoding="UTF-8"?>
<svg height="128px" viewBox="0 0 128 128" width="128px" xmlns="http://www.w3.org/2000/svg" xmlns:xlink="http://www.w3.org/1999/xlink">
    <filter id="a" height="100%" width="100%" x="0%" y="0%">
        <feColorMatrix color-interpolation-filters="sRGB" values="0 0 0 0 1 0 0 0 0 1 0 0 0 0 1 0 0 0 1 0"/>
    </filter>
    <radialGradient id="b" cx="62.470711" cy="29.766808" gradientTransform="matrix(-0.978739 0.947738 -1.060142 -1.09482 157.193604 -3.858633)" gradientUnits="userSpaceOnUse" r="61">
        <stop offset="0" stop-color="#f9f06b"/>
        <stop offset="0.5" stop-color="#ffa348"/>
        <stop offset="1" stop-color="#e66100"/>
    </radialGradient>
    <clipPath id="c">
        <path d="m 87 13 h 41 v 107 h -41 z m 0 0"/>
    </clipPath>
    <clipPath id="d">
        <rect height="128" width="128"/>
    </clipPath>
    <clipPath id="e">
        <rect height="128" width="128"/>
    </clipPath>
    <mask id="f">
        <g filter="url(#a)">
            <g clip-path="url(#e)" filter="url(#a)">
                <g clip-path="url(#d)">
                    <path d="m 132 80 c 0 33.136719 -26.863281 60 -60 60 s -60 -26.863281 -60 -60 s 26.863281 -60 60 -60 s 60 26.863281 60 60 z m 0 0" fill="none" stroke="#5e5c64" stroke-linecap="round" stroke-linejoin="bevel" stroke-width="2" transform="matrix(1 0 0 1 -8 -16)"/>
                    <path d="m 124 64 c 0 33.136719 -26.863281 60 -60 60 s -60 -26.863281 -60 -60 s 26.863281 -60 60 -60 s 60 26.863281 60 60 z m 0 0" fill="url(#b)"/>
                    <path d="m 47.167969 107.761719 h 14.078125 v -21.921875 h 21.515625 v 21.921875 h 14.078125 v -55.515625 h -14.078125 v 21.109375 h -21.515625 v -21.109375 h -14.078125 z m -5.6875 -78.640625" fill="#f6f5f4" stroke="#5e5c64" transform="matrix(1 0 0 1 -8 -16)"/>
                    <path d="m 100.472656 80.132812 l 13.214844 1.71875 l 9.765625 -60.574218 l -16.9375 -2.199219 z m 2.421875 33.121094 c 6.738281 0.875 11.851563 -3.296875 12.691407 -9.773437 c 0.878906 -6.738281 -2.996094 -12.082031 -9.738282 -12.957031 c -6.878906 -0.894532 -11.992187 3.277343 -12.867187 10.019531 c -0.839844 6.476562 3.035156 11.816406 9.914062 12.710937 z m -1.1875 -133.664062" fill="#f6f5f4"/>
                    <g clip-path="url(#c)">
                        <path d="m 119.958562 81.349728 l 13.326147 0.001131 l 1.876661 -61.327657 l -17.07968 0.002227 z m 6.670703 32.532661 c 6.794855 -0.000806 11.327766 -4.796941 11.32583 -11.327729 c 0.003067 -6.795359 -4.528375 -11.59508 -11.327104 -11.593771 c -6.936824 -0.000436 -11.469735 4.795699 -11.468425 11.594428 c 0.001936 6.530788 4.532874 11.326636 11.469699 11.327072 z m -18.405766 -132.396071" fill="none" stroke="#5e5c64" transform="matrix(0.991659 0.128892 -0.128892 0.991659 -8 -16)"/>
                    </g>
                </g>
            </g>
        </g>
    </mask>
    <mask id="g">
        <g filter="url(#a)">
            <rect fill-opacity="0.8" height="184.32" width="184.32" x="-28.16" y="-28.16"/>
        </g>
    </mask>
    <linearGradient id="h" gradientTransform="matrix(0 0.37 -0.98462 0 295.38501 -30.360001)" gradientUnits="userSpaceOnUse" x1="300" x2="428" y1="235" y2="235">
        <stop offset="0" stop-color="#f9f06b"/>
        <stop offset="1" stop-color="#f5c211"/>
    </linearGradient>
    <clipPath id="i">
        <rect height="128" width="128"/>
    </clipPath>
    <clipPath id="j">
        <rect height="128" width="128"/>
    </clipPath>
    <path d="m 124 64 c 0 33.136719 -26.863281 60 -60 60 s -60 -26.863281 -60 -60 s 26.863281 -60 60 -60 s 60 26.863281 60 60 z m 0 0" fill="none" stroke="#5e5c64" stroke-linecap="round" stroke-linejoin="bevel" stroke-width="2"/>
    <path d="m 124 64 c 0 33.136719 -26.863281 60 -60 60 s -60 -26.863281 -60 -60 s 26.863281 -60 60 -60 s 60 26.863281 60 60 z m 0 0" fill="url(#b)"/>
    <path d="m 39.167969 91.761719 h 14.078125 v -21.921875 h 21.515625 v 21.921875 h 14.078125 v -55.515625 h -14.078125 v 21.109375 h -21.515625 v -21.109375 h -14.078125 z m -5.6875 -78.640625" fill="#f6f5f4" stroke="#5e5c64"/>
    <path d="m 119.958562 81.349728 l 13.326147 0.001131 l 1.876661 -61.327657 l -17.07968 0.002227 z m 6.670703 32.532661 c 6.794855 -0.000806 11.327766 -4.796941 11.32583 -11.327729 c 0.003067 -6.795359 -4.528375 -11.59508 -11.327104 -11.593771 c -6.936824 -0.000436 -11.469735 4.795699 -11.468425 11.594428 c 0.001936 6.530788 4.532874 11.326636 11.469699 11.327072 z m -18.405766 -132.396071" fill="#f6f5f4" stroke="#5e5c64" transform="matrix(0.991659 0.128892 -0.128892 0.991659 -8 -16)"/>
    <g mask="url(#f)">
        <g clip-path="url(#j)">
            <g mask="url(#g)">
                <g clip-path="url(#i)">
                    <path d="m 128 80.640625 v 47.359375 h -128 v -47.359375 z m 0 0" fill="url(#h)"/>
                    <path d="m 13.308594 80.640625 l 47.355468 47.359375 h 21.214844 l -47.359375 -47.359375 z m 42.421875 0 l 47.363281 47.359375 h 21.214844 l -47.363282 -47.359375 z m 42.429687 0 l 29.839844 29.839844 v -21.210938 l -8.628906 -8.628906 z m -98.160156 7.90625 v 21.214844 l 18.238281 18.238281 h 21.214844 z m 0 0"/>
                </g>
            </g>
        </g>
    </g>
</svg>
