<?xml version="1.0" encoding="UTF-8"?>
<svg height="128px" viewBox="0 0 128 128" width="128px" xmlns="http://www.w3.org/2000/svg" xmlns:xlink="http://www.w3.org/1999/xlink">
    <radialGradient id="a" cx="62.470711" cy="29.766808" gradientTransform="matrix(-0.978739 0.947738 -1.060142 -1.09482 157.193604 -3.858633)" gradientUnits="userSpaceOnUse" r="61">
        <stop offset="0" stop-color="#f9f06b"/>
        <stop offset="0.5" stop-color="#ffa348"/>
        <stop offset="1" stop-color="#e66100"/>
    </radialGradient>
    <path d="m 124 64 c 0 33.136719 -26.863281 60 -60 60 s -60 -26.863281 -60 -60 s 26.863281 -60 60 -60 s 60 26.863281 60 60 z m 0 0" fill="none" stroke="#5e5c64" stroke-linecap="round" stroke-linejoin="bevel" stroke-width="2"/>
    <path d="m 124 64 c 0 33.136719 -26.863281 60 -60 60 s -60 -26.863281 -60 -60 s 26.863281 -60 60 -60 s 60 26.863281 60 60 z m 0 0" fill="url(#a)"/>
    <g fill="#f6f5f4" stroke="#5e5c64">
        <path d="m 39.167969 91.761719 h 14.078125 v -21.921875 h 21.515625 v 21.921875 h 14.078125 v -55.515625 h -14.078125 v 21.109375 h -21.515625 v -21.109375 h -14.078125 z m -5.6875 -78.640625"/>
        <path d="m 119.958562 81.349728 l 13.326147 0.001131 l 1.876661 -61.327657 l -17.07968 0.002227 z m 6.670703 32.532661 c 6.794855 -0.000806 11.327766 -4.796941 11.32583 -11.327729 c 0.003067 -6.795359 -4.528375 -11.59508 -11.327104 -11.593771 c -6.936824 -0.000436 -11.469735 4.795699 -11.468425 11.594428 c 0.001936 6.530788 4.532874 11.326636 11.469699 11.327072 z m -18.405766 -132.396071" transform="matrix(0.991659 0.128892 -0.128892 0.991659 -8 -16)"/>
    </g>
</svg>
